<svg width="561" height="384" viewBox="0 0 561 384" fill="none" xmlns="http://www.w3.org/2000/svg">
<g opacity="0.3">
<path d="M319.058 267.055L68.4855 120.237C66.7559 119.223 66.7338 116.731 68.4448 115.686L114.713 84.6223C115.541 84.1167 116.579 84.1067 117.417 84.5954L371.497 235.16L319.058 267.055Z" fill="#4A90E2"/>
</g>
<g opacity="0.3">
<path d="M499.578 151.016L371.497 235.16L318.539 203.721L454.237 120.564C455.055 120.096 456.061 120.097 456.879 120.565L499.521 146.433C501.28 147.44 501.311 149.965 499.578 151.016Z" fill="#4A90E2"/>
</g>
<g opacity="0.3">
<path d="M507.692 379.94L319.058 267.054L371.497 235.16L559.684 345.093C561.439 346.146 561.401 348.703 559.615 349.704L510.379 379.97C509.542 380.44 508.518 380.428 507.692 379.94Z" fill="#4A90E2"/>
</g>
<g opacity="0.3">
<path d="M96.196 328.767L268.774 237.524L319.058 267.055L147.849 364.501C147.029 364.986 146.012 364.997 145.182 364.53L96.206 333.411C94.3979 332.394 94.3926 329.792 96.196 328.767Z" fill="#4A90E2"/>
</g>
<g opacity="0.6">
<path d="M293.316 281.707C268.791 295.665 231.141 317.094 200.289 334.654" stroke="white" stroke-miterlimit="10"/>
</g>
<g opacity="0.3">
<path d="M54.0303 266.289L1.88475 236.236C0.138338 235.229 0.0903085 232.726 1.79662 231.653L54.063 198.789C54.918 198.252 56.0031 198.242 56.8681 198.763L110.473 231.076C112.224 232.131 112.192 234.68 110.416 235.692L56.6903 266.296C55.8653 266.766 54.8531 266.763 54.0303 266.289Z" fill="#4A90E2"/>
</g>
<g opacity="0.3">
<path d="M182.691 266.5L128.998 235.075C127.745 234.342 127.748 232.528 129.004 231.799L183.157 200.364C183.747 200.021 184.476 200.022 185.065 200.366L240.784 231.972C242.044 232.707 242.036 234.53 240.77 235.254L184.591 266.51C184.002 266.847 183.277 266.843 182.691 266.5Z" fill="#4A90E2"/>
</g>
<g opacity="0.3">
<path d="M247.876 155.799L193.126 123.358C191.83 122.59 191.848 120.708 193.159 119.965L246.59 89.6719C247.186 89.3341 247.915 89.3315 248.513 89.6655L302 119.521C303.3 120.247 303.349 122.1 302.089 122.893L249.922 155.771C249.299 156.163 248.509 156.175 247.876 155.799Z" fill="#4A90E2"/>
</g>
<g opacity="0.3">
<path d="M500.204 303.413L446.691 271.759C445.525 271.069 445.47 269.401 446.59 268.636L498.607 233.102C499.19 232.703 499.949 232.672 500.564 233.02L553.959 263.255C555.138 263.923 555.224 265.589 554.12 266.375L502.22 303.328C501.624 303.752 500.834 303.786 500.204 303.413Z" fill="#4A90E2"/>
</g>
<g opacity="0.3">
<path d="M253.891 383.399L204.567 348.451C202.932 347.292 203.033 344.833 204.758 343.812L318.121 276.764C319.006 276.241 320.109 276.252 320.984 276.793L372.559 308.69C374.317 309.778 374.306 312.338 372.539 313.409L256.925 383.508C255.983 384.08 254.79 384.036 253.891 383.399Z" fill="#4A90E2"/>
</g>
<g opacity="0.4">
<path d="M259.616 234.864V35.0808L375.604 32.4419L375.719 235.688L259.616 234.864Z" fill="url(#paint0_linear_711_1043)"/>
</g>
<g opacity="0.4">
<path d="M284.792 49.3555L287.167 241.699L318.304 262.791L350.947 241.017L349.1 49.3555H284.792Z" fill="#4A90E2"/>
</g>
<g opacity="0.3">
<path d="M319.057 49.3555L318.304 262.791L350.947 241.017V49.3555H319.057Z" fill="#4A90E2"/>
</g>
<g opacity="0.3">
<path d="M125.95 124.275L310.221 232.779L125.95 124.275Z" fill="#4A90E2"/>
<path d="M125.95 124.275L310.221 232.779" stroke="#23E0EC" stroke-miterlimit="10"/>
</g>
<path d="M359.005 215.85V218.271H356.492V215.85H359.005Z" fill="#00F8FF"/>
<g opacity="0.3">
<path d="M157.68 327.383L306.793 249.114L157.68 327.383Z" fill="#4A90E2"/>
<path d="M157.68 327.383L306.793 249.114" stroke="#23E0EC" stroke-miterlimit="10"/>
</g>
<g opacity="0.3">
<path d="M478.699 329.073L327.793 243.811L478.699 329.073Z" fill="#4A90E2"/>
<path d="M478.699 329.073L327.793 243.811" stroke="#23E0EC" stroke-miterlimit="10"/>
</g>
<g opacity="0.3">
<path d="M461.428 146.074L325.056 232.779L461.428 146.074Z" fill="#4A90E2"/>
<path d="M461.428 146.074L325.056 232.779" stroke="#23E0EC" stroke-miterlimit="10"/>
</g>
<path d="M318.526 263.28L287.167 241.443L317.765 222.505L350.947 241.545L318.526 263.28Z" fill="#4A90E2"/>
<g opacity="0.2">
<path d="M442.16 146.148L462.883 133.049L484.198 146.148L463.179 159.1L442.16 146.148Z" fill="white"/>
</g>
<g opacity="0.2">
<path d="M466.033 337.558L486.755 324.459L508.07 337.558L487.051 350.51L466.033 337.558Z" fill="white"/>
</g>
<g opacity="0.604166">
<path d="M136.661 327.051L157.384 313.952L178.699 327.051L157.68 340.003L136.661 327.051Z" fill="white"/>
</g>
<g opacity="0.2">
<path d="M102.051 121.764L122.774 108.664L144.089 121.764L123.07 134.715L102.051 121.764Z" fill="white"/>
</g>
<path d="M319.525 208.978L286.056 187.141L318.764 168.203L349.835 187.243L319.525 208.978Z" fill="#4A90E2"/>
<path d="M374.311 35.7147L319.054 6.55656C317.845 5.919 316.379 5.94118 315.192 6.61462L262.643 37.4078C260.072 38.8666 260.071 42.4528 262.641 43.9132L317.331 72.4517C318.556 73.1479 320.077 73.1479 321.303 72.4517L374.419 42.7167C377.036 41.23 376.976 37.1207 374.311 35.7147ZM318.53 53.4512C304.759 53.4512 289.374 43.5997 289.374 34.7024C289.374 25.8051 304.017 13.3374 317.788 13.3374C331.559 13.3374 347.159 26.3329 347.159 35.2302C347.159 44.1275 332.301 53.4512 318.53 53.4512Z" fill="#23E0EC"/>
<path d="M373.569 29.9317L318.312 0.773602C317.103 0.136042 315.636 0.158221 314.449 0.831666L261.901 31.6249C259.33 33.0836 259.328 36.6699 261.899 38.1302L316.588 66.6688C317.814 67.3649 319.335 67.3649 320.561 66.6688L373.677 36.9338C376.294 35.447 376.234 31.3377 373.569 29.9317ZM317.788 47.6682C304.017 47.6682 292.854 40.4556 292.854 31.5584C292.854 22.6611 304.017 15.4485 317.788 15.4485C331.559 15.4485 342.722 22.6611 342.722 31.5584C342.722 40.4556 331.559 47.6682 317.788 47.6682Z" fill="white"/>
<path d="M337.729 31.5583C337.729 38.9807 328.747 44.997 317.668 44.997C306.588 44.997 297.606 38.9807 297.606 31.5583C297.606 24.1359 306.588 18.1196 317.668 18.1196C328.747 18.1196 337.729 24.1359 337.729 31.5583Z" fill="#23E0EC"/>
<defs>
<linearGradient id="paint0_linear_711_1043" x1="317.361" y1="230.944" x2="316.94" y2="40.8098" gradientUnits="userSpaceOnUse">
<stop offset="0.27" stop-color="#32659D" stop-opacity="0.1"/>
<stop offset="0.58" stop-color="#32659D" stop-opacity="0.55"/>
<stop offset="1" stop-color="#32659D"/>
</linearGradient>
</defs>
</svg>
