<svg width="26" height="27" viewBox="0 0 26 27" fill="none" xmlns="http://www.w3.org/2000/svg">
<path d="M11.1041 4.81665L4.33325 8.62511V16.7501M5.95825 19.2894L12.9999 23.2501L17.3332 20.8126L20.0416 19.2889L5.95825 19.2894ZM21.6666 16.7501V8.62511L14.8957 4.81665L21.6666 16.7501Z" stroke="#5E36B5" stroke-linecap="round" stroke-linejoin="round"/>
<path d="M11.375 10.6564L9.75 11.6043V15.396L11.375 16.3439L13 17.2918L14.625 16.3439L16.25 15.396V11.6043L14.625 10.6564L13 9.7085L11.375 10.6564Z" fill="#5E36B5" stroke="#5E36B5" stroke-linecap="round" stroke-linejoin="round"/>
<path d="M9.74992 15.1251L5.95825 17.2917M12.9999 9.70841V5.91675V9.70841ZM16.2499 15.1251L20.0416 17.2917L16.2499 15.1251Z" stroke="#5E36B5" stroke-linecap="round" stroke-linejoin="round"/>
<path d="M13 5.91675C13.8975 5.91675 14.625 5.18921 14.625 4.29175C14.625 3.39429 13.8975 2.66675 13 2.66675C12.1025 2.66675 11.375 3.39429 11.375 4.29175C11.375 5.18921 12.1025 5.91675 13 5.91675Z" fill="#5E36B5" stroke="#5E36B5" stroke-linecap="round" stroke-linejoin="round"/>
<path d="M4.33325 20C5.23071 20 5.95825 19.2725 5.95825 18.375C5.95825 17.4775 5.23071 16.75 4.33325 16.75C3.43579 16.75 2.70825 17.4775 2.70825 18.375C2.70825 19.2725 3.43579 20 4.33325 20Z" fill="#5E36B5" stroke="#5E36B5" stroke-linecap="round" stroke-linejoin="round"/>
<path d="M21.6665 20C22.564 20 23.2915 19.2725 23.2915 18.375C23.2915 17.4775 22.564 16.75 21.6665 16.75C20.769 16.75 20.0415 17.4775 20.0415 18.375C20.0415 19.2725 20.769 20 21.6665 20Z" fill="#5E36B5" stroke="#5E36B5" stroke-linecap="round" stroke-linejoin="round"/>
</svg>
