<svg width="33" height="44" viewBox="0 0 44 55" fill="none" xmlns="http://www.w3.org/2000/svg">
<g filter="url(#filter0_i_711_946)">
<path d="M1 53V8.86239V2L8.92105 8.86239V22.7431L22.7368 16.1927L43 25.7064V53L35.2632 46.2936V31.633L22.7368 25.7064L8.92105 31.633V46.2936L1 53Z" fill="white"/>
</g>
<path d="M1 53V8.86239V2L8.92105 8.86239V22.7431L22.7368 16.1927L43 25.7064V53L35.2632 46.2936V31.633L22.7368 25.7064L8.92105 31.633V46.2936L1 53Z" stroke="white"/>
<g filter="url(#filter1_i_711_946)">
<path d="M21.9999 29.625L23.6924 33.4794H29.1694L24.7384 35.8615L26.4309 39.7159L21.9999 37.3338L17.5689 39.7159L19.2614 35.8615L14.8304 33.4794H20.3074L21.9999 29.625Z" fill="white"/>
</g>
<path d="M33.8462 9.83165V19.8183L43 23.7812V4.125L33.8462 9.83165Z" fill="white" stroke="white"/>
<defs>
<filter id="filter0_i_711_946" x="0.5" y="0.905273" width="43" height="57.1899" filterUnits="userSpaceOnUse" color-interpolation-filters="sRGB">
<feFlood flood-opacity="0" result="BackgroundImageFix"/>
<feBlend mode="normal" in="SourceGraphic" in2="BackgroundImageFix" result="shape"/>
<feColorMatrix in="SourceAlpha" type="matrix" values="0 0 0 0 0 0 0 0 0 0 0 0 0 0 0 0 0 0 127 0" result="hardAlpha"/>
<feOffset dy="4"/>
<feGaussianBlur stdDeviation="2"/>
<feComposite in2="hardAlpha" operator="arithmetic" k2="-1" k3="1"/>
<feColorMatrix type="matrix" values="0 0 0 0 1 0 0 0 0 1 0 0 0 0 1 0 0 0 0.25 0"/>
<feBlend mode="normal" in2="shape" result="effect1_innerShadow_711_946"/>
</filter>
<filter id="filter1_i_711_946" x="14.8303" y="29.625" width="14.3391" height="14.0908" filterUnits="userSpaceOnUse" color-interpolation-filters="sRGB">
<feFlood flood-opacity="0" result="BackgroundImageFix"/>
<feBlend mode="normal" in="SourceGraphic" in2="BackgroundImageFix" result="shape"/>
<feColorMatrix in="SourceAlpha" type="matrix" values="0 0 0 0 0 0 0 0 0 0 0 0 0 0 0 0 0 0 127 0" result="hardAlpha"/>
<feOffset dy="4"/>
<feGaussianBlur stdDeviation="2"/>
<feComposite in2="hardAlpha" operator="arithmetic" k2="-1" k3="1"/>
<feColorMatrix type="matrix" values="0 0 0 0 1 0 0 0 0 1 0 0 0 0 1 0 0 0 0.25 0"/>
<feBlend mode="normal" in2="shape" result="effect1_innerShadow_711_946"/>
</filter>
</defs>
</svg>
