<svg width="70" height="70" viewBox="0 0 100 100" fill="none" xmlns="http://www.w3.org/2000/svg">
<circle cx="50" cy="50" r="50" fill="#5E36B5"/>
<path d="M39.7085 58.4614L50.0002 64.25L56.3335 60.6875L60.2918 58.4606" stroke="white" stroke-width="4" stroke-linecap="round" stroke-linejoin="round"/>
<path d="M62.6668 54.75V42.875L52.771 37.3088" stroke="white" stroke-width="4" stroke-linecap="round" stroke-linejoin="round"/>
<path d="M47.2293 37.3088L37.3335 42.875V54.75" stroke="white" stroke-width="4" stroke-linecap="round" stroke-linejoin="round"/>
<path d="M47.625 45.8438L45.25 47.2292V52.7709L47.625 54.1563L50 55.5417L52.375 54.1563L54.75 52.7709V47.2292L52.375 45.8438L50 44.4584L47.625 45.8438Z" stroke="white" stroke-width="4" stroke-linecap="round" stroke-linejoin="round"/>
<path d="M50 44.4584V38.9167" stroke="white" stroke-width="4" stroke-linecap="round" stroke-linejoin="round"/>
<path d="M54.75 52.375L60.2917 55.5417" stroke="white" stroke-width="4" stroke-linecap="round" stroke-linejoin="round"/>
<path d="M45.2502 52.375L39.7085 55.5417" stroke="white" stroke-width="4" stroke-linecap="round" stroke-linejoin="round"/>
<path d="M50 38.9167C51.3117 38.9167 52.375 37.8534 52.375 36.5417C52.375 35.23 51.3117 34.1667 50 34.1667C48.6883 34.1667 47.625 35.23 47.625 36.5417C47.625 37.8534 48.6883 38.9167 50 38.9167Z" stroke="white" stroke-width="4" stroke-linecap="round" stroke-linejoin="round"/>
<path d="M37.3335 59.5C38.6452 59.5 39.7085 58.4367 39.7085 57.125C39.7085 55.8133 38.6452 54.75 37.3335 54.75C36.0218 54.75 34.9585 55.8133 34.9585 57.125C34.9585 58.4367 36.0218 59.5 37.3335 59.5Z" stroke="white" stroke-width="4" stroke-linecap="round" stroke-linejoin="round"/>
<path d="M62.667 59.5C63.9787 59.5 65.042 58.4367 65.042 57.125C65.042 55.8133 63.9787 54.75 62.667 54.75C61.3553 54.75 60.292 55.8133 60.292 57.125C60.292 58.4367 61.3553 59.5 62.667 59.5Z" stroke="white" stroke-width="4" stroke-linecap="round" stroke-linejoin="round"/>
</svg>
