<svg width="13" height="115" viewBox="0 0 13 115" fill="none" xmlns="http://www.w3.org/2000/svg">
<path d="M9.79639 9.92432L9.79639 6.51855L1 6.51855L1 3.70605L9.79639 3.70605L9.79639 0.300293L11.9058 0.300293L11.9058 9.92432L9.79639 9.92432ZM0.999999 19.5044L0.999999 11.6162L11.9058 11.6162L11.9058 19.5044L9.79639 19.5044L9.79639 14.4141L7.91406 14.4141L7.91406 19.1382L5.80469 19.1382L5.80469 14.4141L3.10937 14.4141L3.10937 19.5044L0.999999 19.5044ZM0.787596 26.7993C0.787597 25.9888 0.907225 25.2393 1.14648 24.5508C1.38574 23.8672 1.74219 23.2788 2.21582 22.7856C2.68945 22.2925 3.28027 21.9092 3.98828 21.6357C4.69629 21.3672 5.51416 21.2329 6.44189 21.2329C7.30615 21.2329 8.08984 21.3623 8.79297 21.6211C9.49609 21.8799 10.0991 22.2559 10.602 22.749C11.0854 23.2227 11.459 23.8086 11.7227 24.5068C11.9863 25.21 12.1182 25.9766 12.1182 26.8066C12.1182 27.2656 12.0913 27.6782 12.0376 28.0444C11.9888 28.4155 11.9229 28.7573 11.8398 29.0698C11.7471 29.397 11.6421 29.6924 11.5249 29.9561C11.4126 30.2246 11.3076 30.459 11.21 30.6592L8.56592 30.6592L8.56592 30.3369C8.6831 30.2002 8.82226 30.0269 8.9834 29.8169C9.14453 29.6118 9.30322 29.3774 9.45947 29.1138C9.61572 28.8452 9.74756 28.5547 9.85498 28.2422C9.9624 27.9297 10.0161 27.5952 10.0161 27.2388C10.0161 26.8433 9.95264 26.4673 9.82568 26.1108C9.70361 25.7544 9.49853 25.4248 9.21045 25.1221C8.93213 24.834 8.56348 24.5996 8.10449 24.4189C7.64551 24.2432 7.08887 24.1553 6.43457 24.1553C5.75098 24.1553 5.17969 24.2505 4.7207 24.4409C4.26172 24.6362 3.90039 24.8804 3.63672 25.1733C3.36816 25.4712 3.17529 25.8032 3.0581 26.1694C2.9458 26.5356 2.88965 26.897 2.88965 27.2534C2.88965 27.5952 2.94092 27.9321 3.04346 28.2642C3.14599 28.6011 3.28515 28.9111 3.46094 29.1943C3.60254 29.4336 3.7539 29.6558 3.91504 29.8608C4.07617 30.0659 4.21533 30.2344 4.33252 30.3662L4.33252 30.6592L1.7251 30.6592C1.60303 30.3857 1.48828 30.1245 1.38086 29.8755C1.27344 29.6265 1.18066 29.3652 1.10254 29.0918C0.999999 28.7354 0.921874 28.4009 0.868163 28.0884C0.814452 27.7759 0.787596 27.3462 0.787596 26.7993ZM0.999998 42.5024L0.999998 39.6899L5.80469 39.6899L5.80469 35.5371L0.999998 35.5371L0.999999 32.7246L11.9058 32.7246L11.9058 35.5371L7.91406 35.5371L7.91406 39.6899L11.9058 39.6899L11.9058 42.5024L0.999998 42.5024ZM0.999998 55.21L0.999998 52.5L8.48535 47.8711L0.999998 47.8711L0.999998 45.293L11.9058 45.293L11.9058 48.6548L5.6582 52.6318L11.9058 52.6318L11.9058 55.21L0.999998 55.21ZM6.44922 68.5986C4.71093 68.5986 3.3291 68.1006 2.30371 67.1045C1.2832 66.1084 0.772946 64.7314 0.772946 62.9736C0.772947 61.2207 1.2832 59.8462 2.30371 58.8501C3.3291 57.854 4.71093 57.356 6.44922 57.356C8.20215 57.356 9.58642 57.854 10.602 58.8501C11.6226 59.8462 12.1328 61.2207 12.1328 62.9736C12.1328 64.7217 11.6226 66.0962 10.602 67.0972C9.58642 68.0981 8.20215 68.5986 6.44922 68.5986ZM3.68799 64.8706C4.02002 65.144 4.41064 65.3467 4.85986 65.4785C5.31396 65.6104 5.84619 65.6763 6.45654 65.6763C7.11084 65.6763 7.66748 65.6006 8.12646 65.4492C8.58545 65.2979 8.95654 65.1001 9.23974 64.856C9.53271 64.6069 9.74511 64.3188 9.87695 63.9917C10.0088 63.6694 10.0747 63.3325 10.0747 62.981C10.0747 62.6245 10.0112 62.2876 9.88427 61.9702C9.75732 61.6577 9.54736 61.3696 9.25439 61.106C8.98095 60.8618 8.60254 60.6616 8.11914 60.5054C7.64062 60.354 7.08398 60.2783 6.44922 60.2783C5.7998 60.2783 5.2456 60.3516 4.78662 60.498C4.33252 60.6494 3.96142 60.8472 3.67334 61.0913C3.38525 61.3354 3.17285 61.6211 3.03613 61.9482C2.89941 62.2754 2.83105 62.6196 2.83105 62.981C2.83105 63.3423 2.89941 63.6865 3.03613 64.0137C3.17773 64.3408 3.39502 64.6265 3.68799 64.8706ZM0.999997 78.6182L0.999997 70.752L11.9058 70.752L11.9058 73.5645L3.10937 73.5645L3.10937 78.6182L0.999997 78.6182ZM6.44921 90.9229C4.71093 90.9229 3.3291 90.4248 2.30371 89.4287C1.2832 88.4326 0.772945 87.0557 0.772945 85.2979C0.772946 83.5449 1.2832 82.1704 2.30371 81.1743C3.3291 80.1782 4.71093 79.6802 6.44922 79.6802C8.20214 79.6802 9.58642 80.1782 10.602 81.1743C11.6226 82.1704 12.1328 83.5449 12.1328 85.2979C12.1328 87.0459 11.6226 88.4204 10.602 89.4214C9.58642 90.4224 8.20214 90.9229 6.44921 90.9229ZM3.68798 87.1948C4.02002 87.4683 4.41064 87.6709 4.85986 87.8027C5.31396 87.9346 5.84619 88.0005 6.45654 88.0005C7.11084 88.0005 7.66748 87.9248 8.12646 87.7734C8.58545 87.6221 8.95654 87.4243 9.23974 87.1802C9.53271 86.9312 9.74511 86.6431 9.87695 86.3159C10.0088 85.9937 10.0747 85.6567 10.0747 85.3052C10.0747 84.9487 10.0112 84.6118 9.88427 84.2944C9.75732 83.9819 9.54736 83.6938 9.25439 83.4302C8.98095 83.186 8.60254 82.9858 8.11914 82.8296C7.64062 82.6782 7.08398 82.6025 6.44922 82.6025C5.7998 82.6025 5.2456 82.6758 4.78662 82.8223C4.33252 82.9736 3.96142 83.1714 3.67334 83.4155C3.38525 83.6597 3.17285 83.9453 3.03613 84.2725C2.89941 84.5996 2.83105 84.9438 2.83105 85.3052C2.83105 85.6665 2.89941 86.0107 3.03613 86.3379C3.17773 86.665 3.39502 86.9507 3.68798 87.1948ZM1.62255 102.722C1.43212 102.234 1.24169 101.587 1.05127 100.781C0.865718 99.9756 0.772945 99.1724 0.772945 98.3716C0.772945 96.5161 1.27587 95.0635 2.28173 94.0137C3.29248 92.9639 4.68652 92.439 6.46386 92.439C8.1582 92.439 9.52295 92.9687 10.5581 94.0283C11.5981 95.0879 12.1182 96.5649 12.1182 98.4595C12.1182 99.1772 12.0522 99.8608 11.9204 100.51C11.7935 101.16 11.5371 101.882 11.1514 102.678L8.59521 102.678L8.59521 102.363C8.69775 102.227 8.84179 102.026 9.02734 101.763C9.21777 101.499 9.3789 101.245 9.51074 101.001C9.66699 100.718 9.80127 100.386 9.91357 100.005C10.0259 99.6289 10.082 99.2285 10.082 98.8037C10.082 98.3057 10.0088 97.854 9.8623 97.4487C9.71582 97.0435 9.49121 96.6797 9.18847 96.3574C8.8955 96.0498 8.52197 95.8057 8.06787 95.625C7.61865 95.4492 7.09863 95.3613 6.50781 95.3613C5.30175 95.3613 4.3789 95.6812 3.73925 96.3208C3.09961 96.9604 2.77978 97.9053 2.77978 99.1553C2.77978 99.2627 2.78222 99.3799 2.78711 99.5068C2.79199 99.6387 2.79931 99.7583 2.80908 99.8657L4.94775 99.8657L4.94775 97.6904L7.00586 97.6904L7.00585 102.722L1.62255 102.722ZM11.9058 114.844L5.21875 110.823L0.999995 110.823L0.999995 108.01L5.08691 108.01L11.9058 103.923L11.9058 107.117L7.68701 109.475L11.9058 111.753L11.9058 114.844Z" fill="#CFCFCF"/>
</svg>
